<mxfile host="Electron" modified="2023-04-28T08:55:34.300Z" agent="Mozilla/5.0 (X11; Linux x86_64) AppleWebKit/537.36 (KHTML, like Gecko) draw.io/21.2.1 Chrome/112.0.5615.87 Electron/24.1.2 Safari/537.36" etag="ZzJ6wTLQCt9RaWbolHXA" version="21.2.1" type="device">
  <diagram id="R2lEEEUBdFMjLlhIrx00" name="Page-1">
    <mxGraphModel dx="668" dy="515" grid="1" gridSize="10" guides="1" tooltips="1" connect="1" arrows="1" fold="1" page="1" pageScale="1" pageWidth="850" pageHeight="600" background="#302c2c" math="0" shadow="0" extFonts="Permanent Marker^https://fonts.googleapis.com/css?family=Permanent+Marker">
      <root>
        <object label="" TYPE="INT" id="0">
          <mxCell />
        </object>
        <mxCell id="1" parent="0" />
        <mxCell id="FQJ8MNaaskxs6qzRmeDJ-99" value="" style="edgeStyle=elbowEdgeStyle;fontSize=12;html=1;endArrow=ERzeroToOne;startArrow=ERmandOne;exitX=0;exitY=0.25;exitDx=0;exitDy=0;entryX=1;entryY=0.5;entryDx=0;entryDy=0;strokeWidth=2;strokeColor=#457B9D;labelBackgroundColor=#F1FAEE;fontColor=#1D3557;rounded=0;" parent="1" source="C-vyLk0tnHw3VtMMgP7b-2" target="FQJ8MNaaskxs6qzRmeDJ-5" edge="1">
          <mxGeometry width="100" height="100" relative="1" as="geometry">
            <mxPoint x="353" y="319" as="sourcePoint" />
            <mxPoint x="453" y="219" as="targetPoint" />
            <Array as="points">
              <mxPoint x="331" y="129" />
              <mxPoint x="332" y="137" />
              <mxPoint x="319" y="129" />
            </Array>
          </mxGeometry>
        </mxCell>
        <mxCell id="FQJ8MNaaskxs6qzRmeDJ-80" value="" style="edgeStyle=entityRelationEdgeStyle;fontSize=12;html=1;endArrow=ERzeroToMany;startArrow=ERmandOne;entryX=0;entryY=0.5;entryDx=0;entryDy=0;startFill=0;endFill=1;jumpStyle=arc;exitX=1;exitY=0.5;exitDx=0;exitDy=0;strokeWidth=2;strokeColor=#457B9D;labelBackgroundColor=#F1FAEE;fontColor=#1D3557;rounded=0;" parent="1" source="FQJ8MNaaskxs6qzRmeDJ-51" target="FQJ8MNaaskxs6qzRmeDJ-75" edge="1">
          <mxGeometry width="100" height="100" relative="1" as="geometry">
            <mxPoint x="563" y="453" as="sourcePoint" />
            <mxPoint x="471" y="419" as="targetPoint" />
          </mxGeometry>
        </mxCell>
        <mxCell id="FQJ8MNaaskxs6qzRmeDJ-96" value="" style="edgeStyle=orthogonalEdgeStyle;fontSize=12;html=1;endArrow=ERzeroToMany;startArrow=ERzeroToOne;entryX=1;entryY=0.5;entryDx=0;entryDy=0;exitX=1;exitY=0.5;exitDx=0;exitDy=0;jumpStyle=arc;jumpSize=6;startFill=1;strokeWidth=2;strokeColor=#457B9D;labelBackgroundColor=#F1FAEE;fontColor=#1D3557;rounded=0;" parent="1" edge="1">
          <mxGeometry width="100" height="100" relative="1" as="geometry">
            <mxPoint x="739" y="125" as="sourcePoint" />
            <mxPoint x="525.5" y="478" as="targetPoint" />
            <Array as="points">
              <mxPoint x="796" y="125" />
              <mxPoint x="796" y="296" />
              <mxPoint x="556" y="296" />
              <mxPoint x="556" y="478" />
            </Array>
          </mxGeometry>
        </mxCell>
        <mxCell id="C-vyLk0tnHw3VtMMgP7b-1" value="" style="edgeStyle=entityRelationEdgeStyle;endArrow=ERzeroToMany;startArrow=ERmandOne;endFill=1;startFill=0;strokeWidth=2;strokeColor=#457B9D;labelBackgroundColor=#F1FAEE;fontColor=#1D3557;rounded=0;" parent="1" source="C-vyLk0tnHw3VtMMgP7b-24" target="C-vyLk0tnHw3VtMMgP7b-6" edge="1">
          <mxGeometry width="100" height="100" relative="1" as="geometry">
            <mxPoint x="338" y="758" as="sourcePoint" />
            <mxPoint x="438" y="658" as="targetPoint" />
          </mxGeometry>
        </mxCell>
        <mxCell id="C-vyLk0tnHw3VtMMgP7b-12" value="" style="edgeStyle=entityRelationEdgeStyle;endArrow=ERzeroToMany;startArrow=ERzeroToOne;endFill=1;startFill=1;jumpStyle=arc;strokeWidth=2;strokeColor=#457B9D;labelBackgroundColor=#F1FAEE;fontColor=#1D3557;rounded=0;" parent="1" source="C-vyLk0tnHw3VtMMgP7b-3" target="FQJ8MNaaskxs6qzRmeDJ-24" edge="1">
          <mxGeometry width="100" height="100" relative="1" as="geometry">
            <mxPoint x="398" y="218" as="sourcePoint" />
            <mxPoint x="683.1500244140625" y="442" as="targetPoint" />
          </mxGeometry>
        </mxCell>
        <mxCell id="C-vyLk0tnHw3VtMMgP7b-2" value="DEVRLOPER" style="shape=table;startSize=30;container=1;collapsible=1;childLayout=tableLayout;fixedRows=1;rowLines=0;fontStyle=1;align=center;resizeLast=1;labelBackgroundColor=none;strokeWidth=2;rounded=0;fillColor=#A8DADC;strokeColor=#a9cee5;fontColor=#1D3557;fillStyle=solid;swimlaneFillColor=#FFFF99;" parent="1" vertex="1">
          <mxGeometry x="595" y="110" width="148" height="154" as="geometry" />
        </mxCell>
        <mxCell id="C-vyLk0tnHw3VtMMgP7b-3" value="" style="shape=partialRectangle;collapsible=0;dropTarget=0;pointerEvents=0;fillColor=none;points=[[0,0.5],[1,0.5]];portConstraint=eastwest;top=0;left=0;right=0;bottom=1;strokeColor=#457B9D;fontColor=#1D3557;rounded=0;" parent="C-vyLk0tnHw3VtMMgP7b-2" vertex="1">
          <mxGeometry y="30" width="148" height="30" as="geometry" />
        </mxCell>
        <mxCell id="C-vyLk0tnHw3VtMMgP7b-4" value="PK" style="shape=partialRectangle;overflow=hidden;connectable=0;fillColor=none;top=0;left=0;bottom=0;right=0;fontStyle=1;strokeColor=#457B9D;fontColor=#1D3557;rounded=0;" parent="C-vyLk0tnHw3VtMMgP7b-3" vertex="1">
          <mxGeometry width="30" height="30" as="geometry">
            <mxRectangle width="30" height="30" as="alternateBounds" />
          </mxGeometry>
        </mxCell>
        <mxCell id="C-vyLk0tnHw3VtMMgP7b-5" value="ID" style="shape=partialRectangle;overflow=hidden;connectable=0;fillColor=none;top=0;left=0;bottom=0;right=0;align=left;spacingLeft=6;fontStyle=5;strokeColor=#457B9D;fontColor=#1D3557;rounded=0;" parent="C-vyLk0tnHw3VtMMgP7b-3" vertex="1">
          <mxGeometry x="30" width="118" height="30" as="geometry">
            <mxRectangle width="118" height="30" as="alternateBounds" />
          </mxGeometry>
        </mxCell>
        <mxCell id="C-vyLk0tnHw3VtMMgP7b-6" value="" style="shape=partialRectangle;collapsible=0;dropTarget=0;pointerEvents=0;fillColor=none;points=[[0,0.5],[1,0.5]];portConstraint=eastwest;top=0;left=0;right=0;bottom=0;strokeColor=#457B9D;fontColor=#1D3557;rounded=0;" parent="C-vyLk0tnHw3VtMMgP7b-2" vertex="1">
          <mxGeometry y="60" width="148" height="30" as="geometry" />
        </mxCell>
        <mxCell id="C-vyLk0tnHw3VtMMgP7b-7" value="FK" style="shape=partialRectangle;overflow=hidden;connectable=0;fillColor=none;top=0;left=0;bottom=0;right=0;strokeColor=#457B9D;fontColor=#1D3557;rounded=0;" parent="C-vyLk0tnHw3VtMMgP7b-6" vertex="1">
          <mxGeometry width="30" height="30" as="geometry">
            <mxRectangle width="30" height="30" as="alternateBounds" />
          </mxGeometry>
        </mxCell>
        <mxCell id="C-vyLk0tnHw3VtMMgP7b-8" value="TEAM_ID" style="shape=partialRectangle;overflow=hidden;connectable=0;fillColor=none;top=0;left=0;bottom=0;right=0;align=left;spacingLeft=6;strokeColor=#457B9D;fontColor=#1D3557;rounded=0;" parent="C-vyLk0tnHw3VtMMgP7b-6" vertex="1">
          <mxGeometry x="30" width="118" height="30" as="geometry">
            <mxRectangle width="118" height="30" as="alternateBounds" />
          </mxGeometry>
        </mxCell>
        <mxCell id="C-vyLk0tnHw3VtMMgP7b-9" value="" style="shape=partialRectangle;collapsible=0;dropTarget=0;pointerEvents=0;fillColor=none;points=[[0,0.5],[1,0.5]];portConstraint=eastwest;top=0;left=0;right=0;bottom=0;strokeColor=#457B9D;fontColor=#1D3557;rounded=0;" parent="C-vyLk0tnHw3VtMMgP7b-2" vertex="1">
          <mxGeometry y="90" width="148" height="30" as="geometry" />
        </mxCell>
        <mxCell id="C-vyLk0tnHw3VtMMgP7b-10" value="" style="shape=partialRectangle;overflow=hidden;connectable=0;fillColor=none;top=0;left=0;bottom=0;right=0;strokeColor=#457B9D;fontColor=#1D3557;rounded=0;" parent="C-vyLk0tnHw3VtMMgP7b-9" vertex="1">
          <mxGeometry width="30" height="30" as="geometry">
            <mxRectangle width="30" height="30" as="alternateBounds" />
          </mxGeometry>
        </mxCell>
        <mxCell id="C-vyLk0tnHw3VtMMgP7b-11" value="NAME" style="shape=partialRectangle;overflow=hidden;connectable=0;fillColor=none;top=0;left=0;bottom=0;right=0;align=left;spacingLeft=6;strokeColor=#457B9D;fontColor=#1D3557;rounded=0;" parent="C-vyLk0tnHw3VtMMgP7b-9" vertex="1">
          <mxGeometry x="30" width="118" height="30" as="geometry">
            <mxRectangle width="118" height="30" as="alternateBounds" />
          </mxGeometry>
        </mxCell>
        <mxCell id="FQJ8MNaaskxs6qzRmeDJ-17" value="" style="shape=partialRectangle;collapsible=0;dropTarget=0;pointerEvents=0;fillColor=none;points=[[0,0.5],[1,0.5]];portConstraint=eastwest;top=0;left=0;right=0;bottom=0;strokeColor=#457B9D;fontColor=#1D3557;rounded=0;" parent="C-vyLk0tnHw3VtMMgP7b-2" vertex="1">
          <mxGeometry y="120" width="148" height="25" as="geometry" />
        </mxCell>
        <mxCell id="FQJ8MNaaskxs6qzRmeDJ-18" value="" style="shape=partialRectangle;overflow=hidden;connectable=0;fillColor=none;top=0;left=0;bottom=0;right=0;strokeColor=#457B9D;fontColor=#1D3557;rounded=0;" parent="FQJ8MNaaskxs6qzRmeDJ-17" vertex="1">
          <mxGeometry width="30" height="25" as="geometry">
            <mxRectangle width="30" height="25" as="alternateBounds" />
          </mxGeometry>
        </mxCell>
        <mxCell id="FQJ8MNaaskxs6qzRmeDJ-19" value="SKILLS" style="shape=partialRectangle;overflow=hidden;connectable=0;fillColor=none;top=0;left=0;bottom=0;right=0;align=left;spacingLeft=6;strokeColor=#457B9D;fontColor=#1D3557;rounded=0;" parent="FQJ8MNaaskxs6qzRmeDJ-17" vertex="1">
          <mxGeometry x="30" width="118" height="25" as="geometry">
            <mxRectangle width="118" height="25" as="alternateBounds" />
          </mxGeometry>
        </mxCell>
        <mxCell id="C-vyLk0tnHw3VtMMgP7b-13" value="TASK" style="shape=table;startSize=30;container=1;collapsible=1;childLayout=tableLayout;fixedRows=1;rowLines=0;fontStyle=1;align=center;resizeLast=1;strokeWidth=2;fillColor=#A8DADC;strokeColor=#a9cee5;fontColor=#1D3557;rounded=0;fillStyle=solid;swimlaneFillColor=#FFFF99;" parent="1" vertex="1">
          <mxGeometry x="598" y="353" width="152.15" height="217.30001831054688" as="geometry">
            <mxRectangle x="470" y="300" width="60" height="20" as="alternateBounds" />
          </mxGeometry>
        </mxCell>
        <mxCell id="C-vyLk0tnHw3VtMMgP7b-14" value="" style="shape=partialRectangle;collapsible=0;dropTarget=0;pointerEvents=0;fillColor=none;points=[[0,0.5],[1,0.5]];portConstraint=eastwest;top=0;left=0;right=0;bottom=1;strokeColor=#457B9D;fontColor=#1D3557;rounded=0;" parent="C-vyLk0tnHw3VtMMgP7b-13" vertex="1">
          <mxGeometry y="30" width="152.15" height="30" as="geometry" />
        </mxCell>
        <mxCell id="C-vyLk0tnHw3VtMMgP7b-15" value="PK" style="shape=partialRectangle;overflow=hidden;connectable=0;fillColor=none;top=0;left=0;bottom=0;right=0;fontStyle=1;strokeColor=#457B9D;fontColor=#1D3557;rounded=0;" parent="C-vyLk0tnHw3VtMMgP7b-14" vertex="1">
          <mxGeometry width="30" height="30" as="geometry">
            <mxRectangle width="30" height="30" as="alternateBounds" />
          </mxGeometry>
        </mxCell>
        <mxCell id="C-vyLk0tnHw3VtMMgP7b-16" value="ID" style="shape=partialRectangle;overflow=hidden;connectable=0;fillColor=none;top=0;left=0;bottom=0;right=0;align=left;spacingLeft=6;fontStyle=5;strokeColor=#457B9D;fontColor=#1D3557;rounded=0;" parent="C-vyLk0tnHw3VtMMgP7b-14" vertex="1">
          <mxGeometry x="30" width="122.15" height="30" as="geometry">
            <mxRectangle width="122.15" height="30" as="alternateBounds" />
          </mxGeometry>
        </mxCell>
        <mxCell id="FQJ8MNaaskxs6qzRmeDJ-75" value="" style="shape=partialRectangle;collapsible=0;dropTarget=0;pointerEvents=0;fillColor=none;points=[[0,0.5],[1,0.5]];portConstraint=eastwest;top=0;left=0;right=0;bottom=0;strokeColor=#457B9D;fontColor=#1D3557;rounded=0;" parent="C-vyLk0tnHw3VtMMgP7b-13" vertex="1">
          <mxGeometry y="60" width="152.15" height="31" as="geometry" />
        </mxCell>
        <mxCell id="FQJ8MNaaskxs6qzRmeDJ-76" value="FK1" style="shape=partialRectangle;overflow=hidden;connectable=0;fillColor=none;top=0;left=0;bottom=0;right=0;strokeColor=#457B9D;fontColor=#1D3557;rounded=0;" parent="FQJ8MNaaskxs6qzRmeDJ-75" vertex="1">
          <mxGeometry width="30" height="31" as="geometry">
            <mxRectangle width="30" height="31" as="alternateBounds" />
          </mxGeometry>
        </mxCell>
        <mxCell id="FQJ8MNaaskxs6qzRmeDJ-77" value="STORY_ID" style="shape=partialRectangle;overflow=hidden;connectable=0;fillColor=none;top=0;left=0;bottom=0;right=0;align=left;spacingLeft=6;strokeColor=#457B9D;fontColor=#1D3557;rounded=0;" parent="FQJ8MNaaskxs6qzRmeDJ-75" vertex="1">
          <mxGeometry x="30" width="122.15" height="31" as="geometry">
            <mxRectangle width="122.15" height="31" as="alternateBounds" />
          </mxGeometry>
        </mxCell>
        <mxCell id="C-vyLk0tnHw3VtMMgP7b-20" value="" style="shape=partialRectangle;collapsible=0;dropTarget=0;pointerEvents=0;fillColor=none;points=[[0,0.5],[1,0.5]];portConstraint=eastwest;top=0;left=0;right=0;bottom=0;strokeColor=#457B9D;fontColor=#1D3557;rounded=0;" parent="C-vyLk0tnHw3VtMMgP7b-13" vertex="1">
          <mxGeometry y="91" width="152.15" height="32" as="geometry" />
        </mxCell>
        <mxCell id="C-vyLk0tnHw3VtMMgP7b-21" value="" style="shape=partialRectangle;overflow=hidden;connectable=0;fillColor=none;top=0;left=0;bottom=0;right=0;strokeColor=#457B9D;fontColor=#1D3557;rounded=0;" parent="C-vyLk0tnHw3VtMMgP7b-20" vertex="1">
          <mxGeometry width="30" height="32" as="geometry">
            <mxRectangle width="30" height="32" as="alternateBounds" />
          </mxGeometry>
        </mxCell>
        <mxCell id="C-vyLk0tnHw3VtMMgP7b-22" value="DESCRIPTION" style="shape=partialRectangle;overflow=hidden;connectable=0;fillColor=none;top=0;left=0;bottom=0;right=0;align=left;spacingLeft=6;strokeColor=#457B9D;fontColor=#1D3557;rounded=0;" parent="C-vyLk0tnHw3VtMMgP7b-20" vertex="1">
          <mxGeometry x="30" width="122.15" height="32" as="geometry">
            <mxRectangle width="122.15" height="32" as="alternateBounds" />
          </mxGeometry>
        </mxCell>
        <mxCell id="FQJ8MNaaskxs6qzRmeDJ-24" value="" style="shape=partialRectangle;collapsible=0;dropTarget=0;pointerEvents=0;fillColor=none;points=[[0,0.5],[1,0.5]];portConstraint=eastwest;top=0;left=0;right=0;bottom=0;strokeColor=#457B9D;fontColor=#1D3557;rounded=0;" parent="C-vyLk0tnHw3VtMMgP7b-13" vertex="1">
          <mxGeometry y="123" width="152.15" height="34" as="geometry" />
        </mxCell>
        <mxCell id="FQJ8MNaaskxs6qzRmeDJ-25" value="FK2" style="shape=partialRectangle;overflow=hidden;connectable=0;fillColor=none;top=0;left=0;bottom=0;right=0;strokeColor=#457B9D;fontColor=#1D3557;rounded=0;" parent="FQJ8MNaaskxs6qzRmeDJ-24" vertex="1">
          <mxGeometry width="30" height="34" as="geometry">
            <mxRectangle width="30" height="34" as="alternateBounds" />
          </mxGeometry>
        </mxCell>
        <mxCell id="FQJ8MNaaskxs6qzRmeDJ-26" value="REVIEWER_ID" style="shape=partialRectangle;overflow=hidden;connectable=0;fillColor=none;top=0;left=0;bottom=0;right=0;align=left;spacingLeft=6;strokeColor=#457B9D;fontColor=#1D3557;rounded=0;" parent="FQJ8MNaaskxs6qzRmeDJ-24" vertex="1">
          <mxGeometry x="30" width="122.15" height="34" as="geometry">
            <mxRectangle width="122.15" height="34" as="alternateBounds" />
          </mxGeometry>
        </mxCell>
        <mxCell id="FQJ8MNaaskxs6qzRmeDJ-27" value="" style="shape=partialRectangle;collapsible=0;dropTarget=0;pointerEvents=0;fillColor=none;points=[[0,0.5],[1,0.5]];portConstraint=eastwest;top=0;left=0;right=0;bottom=0;strokeColor=#457B9D;fontColor=#1D3557;rounded=0;" parent="C-vyLk0tnHw3VtMMgP7b-13" vertex="1">
          <mxGeometry y="157" width="152.15" height="30" as="geometry" />
        </mxCell>
        <mxCell id="FQJ8MNaaskxs6qzRmeDJ-28" value="" style="shape=partialRectangle;overflow=hidden;connectable=0;fillColor=none;top=0;left=0;bottom=0;right=0;strokeColor=#457B9D;fontColor=#1D3557;rounded=0;" parent="FQJ8MNaaskxs6qzRmeDJ-27" vertex="1">
          <mxGeometry width="30" height="30" as="geometry">
            <mxRectangle width="30" height="30" as="alternateBounds" />
          </mxGeometry>
        </mxCell>
        <mxCell id="FQJ8MNaaskxs6qzRmeDJ-29" value="DURATION" style="shape=partialRectangle;overflow=hidden;connectable=0;fillColor=none;top=0;left=0;bottom=0;right=0;align=left;spacingLeft=6;strokeColor=#457B9D;fontColor=#1D3557;rounded=0;" parent="FQJ8MNaaskxs6qzRmeDJ-27" vertex="1">
          <mxGeometry x="30" width="122.15" height="30" as="geometry">
            <mxRectangle width="122.15" height="30" as="alternateBounds" />
          </mxGeometry>
        </mxCell>
        <mxCell id="FQJ8MNaaskxs6qzRmeDJ-30" value="" style="shape=partialRectangle;collapsible=0;dropTarget=0;pointerEvents=0;fillColor=none;points=[[0,0.5],[1,0.5]];portConstraint=eastwest;top=0;left=0;right=0;bottom=0;strokeColor=#457B9D;fontColor=#1D3557;rounded=0;" parent="C-vyLk0tnHw3VtMMgP7b-13" vertex="1">
          <mxGeometry y="187" width="152.15" height="29" as="geometry" />
        </mxCell>
        <mxCell id="FQJ8MNaaskxs6qzRmeDJ-31" value="" style="shape=partialRectangle;overflow=hidden;connectable=0;fillColor=none;top=0;left=0;bottom=0;right=0;strokeColor=#457B9D;fontColor=#1D3557;rounded=0;" parent="FQJ8MNaaskxs6qzRmeDJ-30" vertex="1">
          <mxGeometry width="30" height="29" as="geometry">
            <mxRectangle width="30" height="29" as="alternateBounds" />
          </mxGeometry>
        </mxCell>
        <mxCell id="FQJ8MNaaskxs6qzRmeDJ-32" value="STATUS" style="shape=partialRectangle;overflow=hidden;connectable=0;fillColor=none;top=0;left=0;bottom=0;right=0;align=left;spacingLeft=6;strokeColor=#457B9D;fontColor=#1D3557;rounded=0;" parent="FQJ8MNaaskxs6qzRmeDJ-30" vertex="1">
          <mxGeometry x="30" width="122.15" height="29" as="geometry">
            <mxRectangle width="122.15" height="29" as="alternateBounds" />
          </mxGeometry>
        </mxCell>
        <mxCell id="C-vyLk0tnHw3VtMMgP7b-23" value="TEAM" style="shape=table;startSize=30;container=1;collapsible=1;childLayout=tableLayout;fixedRows=1;rowLines=0;fontStyle=1;align=center;resizeLast=1;strokeWidth=2;fillColor=#A8DADC;strokeColor=#a9cee5;fontColor=#1D3557;rounded=0;fillStyle=solid;swimlaneFillColor=#FFFF99;" parent="1" vertex="1">
          <mxGeometry x="345.05" y="170" width="177.5" height="160" as="geometry" />
        </mxCell>
        <mxCell id="C-vyLk0tnHw3VtMMgP7b-24" value="" style="shape=partialRectangle;collapsible=0;dropTarget=0;pointerEvents=0;fillColor=none;points=[[0,0.5],[1,0.5]];portConstraint=eastwest;top=0;left=0;right=0;bottom=1;strokeColor=#457B9D;fontColor=#1D3557;rounded=0;" parent="C-vyLk0tnHw3VtMMgP7b-23" vertex="1">
          <mxGeometry y="30" width="177.5" height="30" as="geometry" />
        </mxCell>
        <mxCell id="C-vyLk0tnHw3VtMMgP7b-25" value="PK" style="shape=partialRectangle;overflow=hidden;connectable=0;fillColor=none;top=0;left=0;bottom=0;right=0;fontStyle=1;strokeColor=#457B9D;fontColor=#1D3557;rounded=0;" parent="C-vyLk0tnHw3VtMMgP7b-24" vertex="1">
          <mxGeometry width="30" height="30" as="geometry">
            <mxRectangle width="30" height="30" as="alternateBounds" />
          </mxGeometry>
        </mxCell>
        <mxCell id="C-vyLk0tnHw3VtMMgP7b-26" value="ID" style="shape=partialRectangle;overflow=hidden;connectable=0;fillColor=none;top=0;left=0;bottom=0;right=0;align=left;spacingLeft=6;fontStyle=5;strokeColor=#457B9D;fontColor=#1D3557;rounded=0;" parent="C-vyLk0tnHw3VtMMgP7b-24" vertex="1">
          <mxGeometry x="30" width="147.5" height="30" as="geometry">
            <mxRectangle width="147.5" height="30" as="alternateBounds" />
          </mxGeometry>
        </mxCell>
        <mxCell id="C-vyLk0tnHw3VtMMgP7b-27" value="" style="shape=partialRectangle;collapsible=0;dropTarget=0;pointerEvents=0;fillColor=none;points=[[0,0.5],[1,0.5]];portConstraint=eastwest;top=0;left=0;right=0;bottom=0;strokeColor=#457B9D;fontColor=#1D3557;rounded=0;" parent="C-vyLk0tnHw3VtMMgP7b-23" vertex="1">
          <mxGeometry y="60" width="177.5" height="30" as="geometry" />
        </mxCell>
        <mxCell id="C-vyLk0tnHw3VtMMgP7b-28" value="FK1" style="shape=partialRectangle;overflow=hidden;connectable=0;fillColor=none;top=0;left=0;bottom=0;right=0;strokeColor=#457B9D;fontColor=#1D3557;rounded=0;" parent="C-vyLk0tnHw3VtMMgP7b-27" vertex="1">
          <mxGeometry width="30" height="30" as="geometry">
            <mxRectangle width="30" height="30" as="alternateBounds" />
          </mxGeometry>
        </mxCell>
        <mxCell id="C-vyLk0tnHw3VtMMgP7b-29" value="MASTER_ID" style="shape=partialRectangle;overflow=hidden;connectable=0;fillColor=none;top=0;left=0;bottom=0;right=0;align=left;spacingLeft=6;strokeColor=#457B9D;fontColor=#1D3557;rounded=0;" parent="C-vyLk0tnHw3VtMMgP7b-27" vertex="1">
          <mxGeometry x="30" width="147.5" height="30" as="geometry">
            <mxRectangle width="147.5" height="30" as="alternateBounds" />
          </mxGeometry>
        </mxCell>
        <mxCell id="FQJ8MNaaskxs6qzRmeDJ-89" value="" style="shape=partialRectangle;collapsible=0;dropTarget=0;pointerEvents=0;fillColor=none;points=[[0,0.5],[1,0.5]];portConstraint=eastwest;top=0;left=0;right=0;bottom=0;strokeColor=#457B9D;fontColor=#1D3557;rounded=0;" parent="C-vyLk0tnHw3VtMMgP7b-23" vertex="1">
          <mxGeometry y="90" width="177.5" height="30" as="geometry" />
        </mxCell>
        <mxCell id="FQJ8MNaaskxs6qzRmeDJ-90" value="FK2" style="shape=partialRectangle;overflow=hidden;connectable=0;fillColor=none;top=0;left=0;bottom=0;right=0;strokeColor=#457B9D;fontColor=#1D3557;rounded=0;" parent="FQJ8MNaaskxs6qzRmeDJ-89" vertex="1">
          <mxGeometry width="30" height="30" as="geometry">
            <mxRectangle width="30" height="30" as="alternateBounds" />
          </mxGeometry>
        </mxCell>
        <mxCell id="FQJ8MNaaskxs6qzRmeDJ-91" value="PROJECT_ID" style="shape=partialRectangle;overflow=hidden;connectable=0;fillColor=none;top=0;left=0;bottom=0;right=0;align=left;spacingLeft=6;strokeColor=#457B9D;fontColor=#1D3557;rounded=0;" parent="FQJ8MNaaskxs6qzRmeDJ-89" vertex="1">
          <mxGeometry x="30" width="147.5" height="30" as="geometry">
            <mxRectangle width="147.5" height="30" as="alternateBounds" />
          </mxGeometry>
        </mxCell>
        <mxCell id="FQJ8MNaaskxs6qzRmeDJ-92" value="" style="shape=partialRectangle;collapsible=0;dropTarget=0;pointerEvents=0;fillColor=none;points=[[0,0.5],[1,0.5]];portConstraint=eastwest;top=0;left=0;right=0;bottom=0;strokeColor=#457B9D;fontColor=#1D3557;rounded=0;" parent="C-vyLk0tnHw3VtMMgP7b-23" vertex="1">
          <mxGeometry y="120" width="177.5" height="30" as="geometry" />
        </mxCell>
        <mxCell id="FQJ8MNaaskxs6qzRmeDJ-93" value="" style="shape=partialRectangle;overflow=hidden;connectable=0;fillColor=none;top=0;left=0;bottom=0;right=0;strokeColor=#457B9D;fontColor=#1D3557;rounded=0;" parent="FQJ8MNaaskxs6qzRmeDJ-92" vertex="1">
          <mxGeometry width="30" height="30" as="geometry">
            <mxRectangle width="30" height="30" as="alternateBounds" />
          </mxGeometry>
        </mxCell>
        <mxCell id="FQJ8MNaaskxs6qzRmeDJ-94" value="NAME" style="shape=partialRectangle;overflow=hidden;connectable=0;fillColor=none;top=0;left=0;bottom=0;right=0;align=left;spacingLeft=6;strokeColor=#457B9D;fontColor=#1D3557;rounded=0;" parent="FQJ8MNaaskxs6qzRmeDJ-92" vertex="1">
          <mxGeometry x="30" width="147.5" height="30" as="geometry">
            <mxRectangle width="147.5" height="30" as="alternateBounds" />
          </mxGeometry>
        </mxCell>
        <mxCell id="FQJ8MNaaskxs6qzRmeDJ-1" value="PROJECT" style="shape=table;startSize=30;container=1;collapsible=1;childLayout=tableLayout;fixedRows=1;rowLines=0;fontStyle=1;align=center;resizeLast=1;strokeWidth=2;fillColor=#A8DADC;strokeColor=#a9cee5;fontColor=#1D3557;rounded=0;fillStyle=solid;swimlaneFillColor=#FFFF99;" parent="1" vertex="1">
          <mxGeometry x="90" y="44" width="180" height="220" as="geometry" />
        </mxCell>
        <mxCell id="FQJ8MNaaskxs6qzRmeDJ-2" value="" style="shape=partialRectangle;collapsible=0;dropTarget=0;pointerEvents=0;fillColor=none;top=0;left=0;bottom=1;right=0;points=[[0,0.5],[1,0.5]];portConstraint=eastwest;strokeColor=#457B9D;fontColor=#1D3557;rounded=0;" parent="FQJ8MNaaskxs6qzRmeDJ-1" vertex="1">
          <mxGeometry y="30" width="180" height="30" as="geometry" />
        </mxCell>
        <mxCell id="FQJ8MNaaskxs6qzRmeDJ-3" value="PK" style="shape=partialRectangle;connectable=0;fillColor=none;top=0;left=0;bottom=0;right=0;fontStyle=1;overflow=hidden;strokeColor=#457B9D;fontColor=#1D3557;rounded=0;" parent="FQJ8MNaaskxs6qzRmeDJ-2" vertex="1">
          <mxGeometry width="30" height="30" as="geometry">
            <mxRectangle width="30" height="30" as="alternateBounds" />
          </mxGeometry>
        </mxCell>
        <mxCell id="FQJ8MNaaskxs6qzRmeDJ-4" value="ID" style="shape=partialRectangle;connectable=0;fillColor=none;top=0;left=0;bottom=0;right=0;align=left;spacingLeft=6;fontStyle=5;overflow=hidden;strokeColor=#457B9D;fontColor=#1D3557;rounded=0;" parent="FQJ8MNaaskxs6qzRmeDJ-2" vertex="1">
          <mxGeometry x="30" width="150" height="30" as="geometry">
            <mxRectangle width="150" height="30" as="alternateBounds" />
          </mxGeometry>
        </mxCell>
        <mxCell id="FQJ8MNaaskxs6qzRmeDJ-100" value="" style="shape=partialRectangle;collapsible=0;dropTarget=0;pointerEvents=0;fillColor=none;top=0;left=0;bottom=0;right=0;points=[[0,0.5],[1,0.5]];portConstraint=eastwest;strokeColor=#457B9D;fontColor=#1D3557;rounded=0;" parent="FQJ8MNaaskxs6qzRmeDJ-1" vertex="1">
          <mxGeometry y="60" width="180" height="30" as="geometry" />
        </mxCell>
        <mxCell id="FQJ8MNaaskxs6qzRmeDJ-101" value="FK" style="shape=partialRectangle;connectable=0;fillColor=none;top=0;left=0;bottom=0;right=0;editable=1;overflow=hidden;strokeColor=#457B9D;fontColor=#1D3557;rounded=0;" parent="FQJ8MNaaskxs6qzRmeDJ-100" vertex="1">
          <mxGeometry width="30" height="30" as="geometry">
            <mxRectangle width="30" height="30" as="alternateBounds" />
          </mxGeometry>
        </mxCell>
        <mxCell id="FQJ8MNaaskxs6qzRmeDJ-102" value="OWNER_ID" style="shape=partialRectangle;connectable=0;fillColor=none;top=0;left=0;bottom=0;right=0;align=left;spacingLeft=6;overflow=hidden;strokeColor=#457B9D;fontColor=#1D3557;rounded=0;" parent="FQJ8MNaaskxs6qzRmeDJ-100" vertex="1">
          <mxGeometry x="30" width="150" height="30" as="geometry">
            <mxRectangle width="150" height="30" as="alternateBounds" />
          </mxGeometry>
        </mxCell>
        <mxCell id="FQJ8MNaaskxs6qzRmeDJ-5" value="" style="shape=partialRectangle;collapsible=0;dropTarget=0;pointerEvents=0;fillColor=none;top=0;left=0;bottom=0;right=0;points=[[0,0.5],[1,0.5]];portConstraint=eastwest;strokeColor=#457B9D;fontColor=#1D3557;rounded=0;" parent="FQJ8MNaaskxs6qzRmeDJ-1" vertex="1">
          <mxGeometry y="90" width="180" height="30" as="geometry" />
        </mxCell>
        <mxCell id="FQJ8MNaaskxs6qzRmeDJ-6" value="FK" style="shape=partialRectangle;connectable=0;fillColor=none;top=0;left=0;bottom=0;right=0;editable=1;overflow=hidden;strokeColor=#457B9D;fontColor=#1D3557;rounded=0;" parent="FQJ8MNaaskxs6qzRmeDJ-5" vertex="1">
          <mxGeometry width="30" height="30" as="geometry">
            <mxRectangle width="30" height="30" as="alternateBounds" />
          </mxGeometry>
        </mxCell>
        <mxCell id="FQJ8MNaaskxs6qzRmeDJ-7" value="OWNER_ID" style="shape=partialRectangle;connectable=0;fillColor=none;top=0;left=0;bottom=0;right=0;align=left;spacingLeft=6;overflow=hidden;strokeColor=#457B9D;fontColor=#1D3557;rounded=0;" parent="FQJ8MNaaskxs6qzRmeDJ-5" vertex="1">
          <mxGeometry x="30" width="150" height="30" as="geometry">
            <mxRectangle width="150" height="30" as="alternateBounds" />
          </mxGeometry>
        </mxCell>
        <mxCell id="FQJ8MNaaskxs6qzRmeDJ-8" value="" style="shape=partialRectangle;collapsible=0;dropTarget=0;pointerEvents=0;fillColor=none;top=0;left=0;bottom=0;right=0;points=[[0,0.5],[1,0.5]];portConstraint=eastwest;strokeColor=#457B9D;fontColor=#1D3557;rounded=0;" parent="FQJ8MNaaskxs6qzRmeDJ-1" vertex="1">
          <mxGeometry y="120" width="180" height="30" as="geometry" />
        </mxCell>
        <mxCell id="FQJ8MNaaskxs6qzRmeDJ-9" value="" style="shape=partialRectangle;connectable=0;fillColor=none;top=0;left=0;bottom=0;right=0;editable=1;overflow=hidden;strokeColor=#457B9D;fontColor=#1D3557;rounded=0;" parent="FQJ8MNaaskxs6qzRmeDJ-8" vertex="1">
          <mxGeometry width="30" height="30" as="geometry">
            <mxRectangle width="30" height="30" as="alternateBounds" />
          </mxGeometry>
        </mxCell>
        <mxCell id="FQJ8MNaaskxs6qzRmeDJ-10" value="NAME" style="shape=partialRectangle;connectable=0;fillColor=none;top=0;left=0;bottom=0;right=0;align=left;spacingLeft=6;overflow=hidden;strokeColor=#457B9D;fontColor=#1D3557;rounded=0;" parent="FQJ8MNaaskxs6qzRmeDJ-8" vertex="1">
          <mxGeometry x="30" width="150" height="30" as="geometry">
            <mxRectangle width="150" height="30" as="alternateBounds" />
          </mxGeometry>
        </mxCell>
        <mxCell id="FQJ8MNaaskxs6qzRmeDJ-11" value="" style="shape=partialRectangle;collapsible=0;dropTarget=0;pointerEvents=0;fillColor=none;top=0;left=0;bottom=0;right=0;points=[[0,0.5],[1,0.5]];portConstraint=eastwest;strokeColor=#457B9D;fontColor=#1D3557;rounded=0;" parent="FQJ8MNaaskxs6qzRmeDJ-1" vertex="1">
          <mxGeometry y="150" width="180" height="30" as="geometry" />
        </mxCell>
        <mxCell id="FQJ8MNaaskxs6qzRmeDJ-12" value="" style="shape=partialRectangle;connectable=0;fillColor=none;top=0;left=0;bottom=0;right=0;editable=1;overflow=hidden;strokeColor=#457B9D;fontColor=#1D3557;rounded=0;" parent="FQJ8MNaaskxs6qzRmeDJ-11" vertex="1">
          <mxGeometry width="30" height="30" as="geometry">
            <mxRectangle width="30" height="30" as="alternateBounds" />
          </mxGeometry>
        </mxCell>
        <mxCell id="FQJ8MNaaskxs6qzRmeDJ-13" value="DESCRIPTION" style="shape=partialRectangle;connectable=0;fillColor=none;top=0;left=0;bottom=0;right=0;align=left;spacingLeft=6;overflow=hidden;strokeColor=#457B9D;fontColor=#1D3557;rounded=0;" parent="FQJ8MNaaskxs6qzRmeDJ-11" vertex="1">
          <mxGeometry x="30" width="150" height="30" as="geometry">
            <mxRectangle width="150" height="30" as="alternateBounds" />
          </mxGeometry>
        </mxCell>
        <mxCell id="FQJ8MNaaskxs6qzRmeDJ-34" value="" style="shape=partialRectangle;collapsible=0;dropTarget=0;pointerEvents=0;fillColor=none;top=0;left=0;bottom=0;right=0;points=[[0,0.5],[1,0.5]];portConstraint=eastwest;strokeColor=#457B9D;fontColor=#1D3557;rounded=0;" parent="FQJ8MNaaskxs6qzRmeDJ-1" vertex="1">
          <mxGeometry y="180" width="180" height="30" as="geometry" />
        </mxCell>
        <mxCell id="FQJ8MNaaskxs6qzRmeDJ-35" value="" style="shape=partialRectangle;connectable=0;fillColor=none;top=0;left=0;bottom=0;right=0;editable=1;overflow=hidden;strokeColor=#457B9D;fontColor=#1D3557;rounded=0;" parent="FQJ8MNaaskxs6qzRmeDJ-34" vertex="1">
          <mxGeometry width="30" height="30" as="geometry">
            <mxRectangle width="30" height="30" as="alternateBounds" />
          </mxGeometry>
        </mxCell>
        <mxCell id="FQJ8MNaaskxs6qzRmeDJ-36" value="LANGUAGE" style="shape=partialRectangle;connectable=0;fillColor=none;top=0;left=0;bottom=0;right=0;align=left;spacingLeft=6;overflow=hidden;strokeColor=#457B9D;fontColor=#1D3557;rounded=0;" parent="FQJ8MNaaskxs6qzRmeDJ-34" vertex="1">
          <mxGeometry x="30" width="150" height="30" as="geometry">
            <mxRectangle width="150" height="30" as="alternateBounds" />
          </mxGeometry>
        </mxCell>
        <mxCell id="FQJ8MNaaskxs6qzRmeDJ-33" value="" style="edgeStyle=entityRelationEdgeStyle;fontSize=12;html=1;endArrow=ERzeroToMany;startArrow=ERmandOne;exitX=0;exitY=0.3;exitDx=0;exitDy=0;jumpStyle=gap;jumpSize=20;startFill=0;strokeWidth=2;strokeColor=#457B9D;labelBackgroundColor=#F1FAEE;fontColor=#1D3557;rounded=0;exitPerimeter=0;" parent="1" source="C-vyLk0tnHw3VtMMgP7b-9" target="C-vyLk0tnHw3VtMMgP7b-27" edge="1">
          <mxGeometry width="100" height="100" relative="1" as="geometry">
            <mxPoint x="321" y="447" as="sourcePoint" />
            <mxPoint x="436" y="382" as="targetPoint" />
          </mxGeometry>
        </mxCell>
        <mxCell id="FQJ8MNaaskxs6qzRmeDJ-37" value="EPIC" style="shape=table;startSize=30;container=1;collapsible=1;childLayout=tableLayout;fixedRows=1;rowLines=0;fontStyle=1;align=center;resizeLast=1;rounded=0;labelBackgroundColor=none;strokeWidth=2;fillColor=#A8DADC;strokeColor=#a9cee5;fontColor=#1D3557;fillStyle=solid;swimlaneFillColor=#FFFF99;" parent="1" vertex="1">
          <mxGeometry x="90" y="350" width="180" height="220" as="geometry" />
        </mxCell>
        <mxCell id="FQJ8MNaaskxs6qzRmeDJ-38" value="" style="shape=partialRectangle;collapsible=0;dropTarget=0;pointerEvents=0;fillColor=none;top=0;left=0;bottom=1;right=0;points=[[0,0.5],[1,0.5]];portConstraint=eastwest;strokeColor=#457B9D;fontColor=#1D3557;rounded=0;" parent="FQJ8MNaaskxs6qzRmeDJ-37" vertex="1">
          <mxGeometry y="30" width="180" height="30" as="geometry" />
        </mxCell>
        <mxCell id="FQJ8MNaaskxs6qzRmeDJ-39" value="PK" style="shape=partialRectangle;connectable=0;fillColor=none;top=0;left=0;bottom=0;right=0;fontStyle=1;overflow=hidden;strokeColor=#457B9D;fontColor=#1D3557;rounded=0;" parent="FQJ8MNaaskxs6qzRmeDJ-38" vertex="1">
          <mxGeometry width="30" height="30" as="geometry">
            <mxRectangle width="30" height="30" as="alternateBounds" />
          </mxGeometry>
        </mxCell>
        <mxCell id="FQJ8MNaaskxs6qzRmeDJ-40" value="ID" style="shape=partialRectangle;connectable=0;fillColor=none;top=0;left=0;bottom=0;right=0;align=left;spacingLeft=6;fontStyle=5;overflow=hidden;strokeColor=#457B9D;fontColor=#1D3557;rounded=0;" parent="FQJ8MNaaskxs6qzRmeDJ-38" vertex="1">
          <mxGeometry x="30" width="150" height="30" as="geometry">
            <mxRectangle width="150" height="30" as="alternateBounds" />
          </mxGeometry>
        </mxCell>
        <mxCell id="FQJ8MNaaskxs6qzRmeDJ-41" value="" style="shape=partialRectangle;collapsible=0;dropTarget=0;pointerEvents=0;fillColor=none;top=0;left=0;bottom=0;right=0;points=[[0,0.5],[1,0.5]];portConstraint=eastwest;strokeColor=#457B9D;fontColor=#1D3557;rounded=0;" parent="FQJ8MNaaskxs6qzRmeDJ-37" vertex="1">
          <mxGeometry y="60" width="180" height="30" as="geometry" />
        </mxCell>
        <mxCell id="FQJ8MNaaskxs6qzRmeDJ-42" value="FK" style="shape=partialRectangle;connectable=0;fillColor=none;top=0;left=0;bottom=0;right=0;editable=1;overflow=hidden;strokeColor=#457B9D;fontColor=#1D3557;rounded=0;" parent="FQJ8MNaaskxs6qzRmeDJ-41" vertex="1">
          <mxGeometry width="30" height="30" as="geometry">
            <mxRectangle width="30" height="30" as="alternateBounds" />
          </mxGeometry>
        </mxCell>
        <mxCell id="FQJ8MNaaskxs6qzRmeDJ-43" value="PROJECT_ID" style="shape=partialRectangle;connectable=0;fillColor=none;top=0;left=0;bottom=0;right=0;align=left;spacingLeft=6;overflow=hidden;strokeColor=#457B9D;fontColor=#1D3557;rounded=0;" parent="FQJ8MNaaskxs6qzRmeDJ-41" vertex="1">
          <mxGeometry x="30" width="150" height="30" as="geometry">
            <mxRectangle width="150" height="30" as="alternateBounds" />
          </mxGeometry>
        </mxCell>
        <mxCell id="FQJ8MNaaskxs6qzRmeDJ-44" value="" style="shape=partialRectangle;collapsible=0;dropTarget=0;pointerEvents=0;fillColor=none;top=0;left=0;bottom=0;right=0;points=[[0,0.5],[1,0.5]];portConstraint=eastwest;strokeColor=#457B9D;fontColor=#1D3557;rounded=0;" parent="FQJ8MNaaskxs6qzRmeDJ-37" vertex="1">
          <mxGeometry y="90" width="180" height="30" as="geometry" />
        </mxCell>
        <mxCell id="FQJ8MNaaskxs6qzRmeDJ-45" value="" style="shape=partialRectangle;connectable=0;fillColor=none;top=0;left=0;bottom=0;right=0;editable=1;overflow=hidden;strokeColor=#457B9D;fontColor=#1D3557;rounded=0;" parent="FQJ8MNaaskxs6qzRmeDJ-44" vertex="1">
          <mxGeometry width="30" height="30" as="geometry">
            <mxRectangle width="30" height="30" as="alternateBounds" />
          </mxGeometry>
        </mxCell>
        <mxCell id="FQJ8MNaaskxs6qzRmeDJ-46" value="DESCRIPTION" style="shape=partialRectangle;connectable=0;fillColor=none;top=0;left=0;bottom=0;right=0;align=left;spacingLeft=6;overflow=hidden;strokeColor=#457B9D;fontColor=#1D3557;rounded=0;" parent="FQJ8MNaaskxs6qzRmeDJ-44" vertex="1">
          <mxGeometry x="30" width="150" height="30" as="geometry">
            <mxRectangle width="150" height="30" as="alternateBounds" />
          </mxGeometry>
        </mxCell>
        <mxCell id="FQJ8MNaaskxs6qzRmeDJ-47" value="" style="shape=partialRectangle;collapsible=0;dropTarget=0;pointerEvents=0;fillColor=none;top=0;left=0;bottom=0;right=0;points=[[0,0.5],[1,0.5]];portConstraint=eastwest;strokeColor=#457B9D;fontColor=#1D3557;rounded=0;" parent="FQJ8MNaaskxs6qzRmeDJ-37" vertex="1">
          <mxGeometry y="120" width="180" height="30" as="geometry" />
        </mxCell>
        <mxCell id="FQJ8MNaaskxs6qzRmeDJ-48" value="" style="shape=partialRectangle;connectable=0;fillColor=none;top=0;left=0;bottom=0;right=0;editable=1;overflow=hidden;strokeColor=#457B9D;fontColor=#1D3557;rounded=0;" parent="FQJ8MNaaskxs6qzRmeDJ-47" vertex="1">
          <mxGeometry width="30" height="30" as="geometry">
            <mxRectangle width="30" height="30" as="alternateBounds" />
          </mxGeometry>
        </mxCell>
        <mxCell id="FQJ8MNaaskxs6qzRmeDJ-49" value="VALUE" style="shape=partialRectangle;connectable=0;fillColor=none;top=0;left=0;bottom=0;right=0;align=left;spacingLeft=6;overflow=hidden;strokeColor=#457B9D;fontColor=#1D3557;rounded=0;" parent="FQJ8MNaaskxs6qzRmeDJ-47" vertex="1">
          <mxGeometry x="30" width="150" height="30" as="geometry">
            <mxRectangle width="150" height="30" as="alternateBounds" />
          </mxGeometry>
        </mxCell>
        <mxCell id="FQJ8MNaaskxs6qzRmeDJ-63" value="" style="shape=partialRectangle;collapsible=0;dropTarget=0;pointerEvents=0;fillColor=none;top=0;left=0;bottom=0;right=0;points=[[0,0.5],[1,0.5]];portConstraint=eastwest;strokeColor=#457B9D;fontColor=#1D3557;rounded=0;" parent="FQJ8MNaaskxs6qzRmeDJ-37" vertex="1">
          <mxGeometry y="150" width="180" height="30" as="geometry" />
        </mxCell>
        <mxCell id="FQJ8MNaaskxs6qzRmeDJ-64" value="" style="shape=partialRectangle;connectable=0;fillColor=none;top=0;left=0;bottom=0;right=0;editable=1;overflow=hidden;strokeColor=#457B9D;fontColor=#1D3557;rounded=0;" parent="FQJ8MNaaskxs6qzRmeDJ-63" vertex="1">
          <mxGeometry width="30" height="30" as="geometry">
            <mxRectangle width="30" height="30" as="alternateBounds" />
          </mxGeometry>
        </mxCell>
        <mxCell id="FQJ8MNaaskxs6qzRmeDJ-65" value="DUE_DATE" style="shape=partialRectangle;connectable=0;fillColor=none;top=0;left=0;bottom=0;right=0;align=left;spacingLeft=6;overflow=hidden;strokeColor=#457B9D;fontColor=#1D3557;rounded=0;" parent="FQJ8MNaaskxs6qzRmeDJ-63" vertex="1">
          <mxGeometry x="30" width="150" height="30" as="geometry">
            <mxRectangle width="150" height="30" as="alternateBounds" />
          </mxGeometry>
        </mxCell>
        <mxCell id="FQJ8MNaaskxs6qzRmeDJ-66" value="" style="shape=partialRectangle;collapsible=0;dropTarget=0;pointerEvents=0;fillColor=none;top=0;left=0;bottom=0;right=0;points=[[0,0.5],[1,0.5]];portConstraint=eastwest;strokeColor=#457B9D;fontColor=#1D3557;rounded=0;" parent="FQJ8MNaaskxs6qzRmeDJ-37" vertex="1">
          <mxGeometry y="180" width="180" height="30" as="geometry" />
        </mxCell>
        <mxCell id="FQJ8MNaaskxs6qzRmeDJ-67" value="" style="shape=partialRectangle;connectable=0;fillColor=none;top=0;left=0;bottom=0;right=0;editable=1;overflow=hidden;strokeColor=#457B9D;fontColor=#1D3557;rounded=0;" parent="FQJ8MNaaskxs6qzRmeDJ-66" vertex="1">
          <mxGeometry width="30" height="30" as="geometry">
            <mxRectangle width="30" height="30" as="alternateBounds" />
          </mxGeometry>
        </mxCell>
        <mxCell id="FQJ8MNaaskxs6qzRmeDJ-68" value="STATUS" style="shape=partialRectangle;connectable=0;fillColor=none;top=0;left=0;bottom=0;right=0;align=left;spacingLeft=6;overflow=hidden;strokeColor=#457B9D;fontColor=#1D3557;rounded=0;" parent="FQJ8MNaaskxs6qzRmeDJ-66" vertex="1">
          <mxGeometry x="30" width="150" height="30" as="geometry">
            <mxRectangle width="150" height="30" as="alternateBounds" />
          </mxGeometry>
        </mxCell>
        <mxCell id="FQJ8MNaaskxs6qzRmeDJ-50" value="STORY" style="shape=table;startSize=30;container=1;collapsible=1;childLayout=tableLayout;fixedRows=1;rowLines=0;fontStyle=1;align=center;resizeLast=1;rounded=0;labelBackgroundColor=none;strokeWidth=2;fillColor=#A8DADC;strokeColor=#a9cee5;fontColor=#1D3557;fillStyle=solid;swimlaneFillColor=#FFFF99;" parent="1" vertex="1">
          <mxGeometry x="345.5" y="353" width="177.050048828125" height="218.95001220703125" as="geometry" />
        </mxCell>
        <mxCell id="FQJ8MNaaskxs6qzRmeDJ-51" value="" style="shape=partialRectangle;collapsible=0;dropTarget=0;pointerEvents=0;fillColor=none;top=0;left=0;bottom=1;right=0;points=[[0,0.5],[1,0.5]];portConstraint=eastwest;strokeColor=#457B9D;fontColor=#1D3557;rounded=0;" parent="FQJ8MNaaskxs6qzRmeDJ-50" vertex="1">
          <mxGeometry y="30" width="177.050048828125" height="30" as="geometry" />
        </mxCell>
        <mxCell id="FQJ8MNaaskxs6qzRmeDJ-52" value="PK" style="shape=partialRectangle;connectable=0;fillColor=none;top=0;left=0;bottom=0;right=0;fontStyle=1;overflow=hidden;strokeColor=#457B9D;fontColor=#1D3557;rounded=0;" parent="FQJ8MNaaskxs6qzRmeDJ-51" vertex="1">
          <mxGeometry width="30" height="30" as="geometry">
            <mxRectangle width="30" height="30" as="alternateBounds" />
          </mxGeometry>
        </mxCell>
        <mxCell id="FQJ8MNaaskxs6qzRmeDJ-53" value="ID" style="shape=partialRectangle;connectable=0;fillColor=none;top=0;left=0;bottom=0;right=0;align=left;spacingLeft=6;fontStyle=5;overflow=hidden;strokeColor=#457B9D;fontColor=#1D3557;rounded=0;" parent="FQJ8MNaaskxs6qzRmeDJ-51" vertex="1">
          <mxGeometry x="30" width="147.050048828125" height="30" as="geometry">
            <mxRectangle width="147.050048828125" height="30" as="alternateBounds" />
          </mxGeometry>
        </mxCell>
        <mxCell id="FQJ8MNaaskxs6qzRmeDJ-54" value="" style="shape=partialRectangle;collapsible=0;dropTarget=0;pointerEvents=0;fillColor=none;top=0;left=0;bottom=0;right=0;points=[[0,0.5],[1,0.5]];portConstraint=eastwest;strokeColor=#457B9D;fontColor=#1D3557;rounded=0;" parent="FQJ8MNaaskxs6qzRmeDJ-50" vertex="1">
          <mxGeometry y="60" width="177.050048828125" height="30" as="geometry" />
        </mxCell>
        <mxCell id="FQJ8MNaaskxs6qzRmeDJ-55" value="FK1" style="shape=partialRectangle;connectable=0;fillColor=none;top=0;left=0;bottom=0;right=0;editable=1;overflow=hidden;strokeColor=#457B9D;fontColor=#1D3557;rounded=0;" parent="FQJ8MNaaskxs6qzRmeDJ-54" vertex="1">
          <mxGeometry width="30" height="30" as="geometry">
            <mxRectangle width="30" height="30" as="alternateBounds" />
          </mxGeometry>
        </mxCell>
        <mxCell id="FQJ8MNaaskxs6qzRmeDJ-56" value="EPIC_ID" style="shape=partialRectangle;connectable=0;fillColor=none;top=0;left=0;bottom=0;right=0;align=left;spacingLeft=6;overflow=hidden;strokeColor=#457B9D;fontColor=#1D3557;rounded=0;" parent="FQJ8MNaaskxs6qzRmeDJ-54" vertex="1">
          <mxGeometry x="30" width="147.050048828125" height="30" as="geometry">
            <mxRectangle width="147.050048828125" height="30" as="alternateBounds" />
          </mxGeometry>
        </mxCell>
        <mxCell id="FQJ8MNaaskxs6qzRmeDJ-57" value="" style="shape=partialRectangle;collapsible=0;dropTarget=0;pointerEvents=0;fillColor=none;top=0;left=0;bottom=0;right=0;points=[[0,0.5],[1,0.5]];portConstraint=eastwest;strokeColor=#457B9D;fontColor=#1D3557;rounded=0;" parent="FQJ8MNaaskxs6qzRmeDJ-50" vertex="1">
          <mxGeometry y="90" width="177.050048828125" height="30" as="geometry" />
        </mxCell>
        <mxCell id="FQJ8MNaaskxs6qzRmeDJ-58" value="" style="shape=partialRectangle;connectable=0;fillColor=none;top=0;left=0;bottom=0;right=0;editable=1;overflow=hidden;strokeColor=#457B9D;fontColor=#1D3557;rounded=0;" parent="FQJ8MNaaskxs6qzRmeDJ-57" vertex="1">
          <mxGeometry width="30" height="30" as="geometry">
            <mxRectangle width="30" height="30" as="alternateBounds" />
          </mxGeometry>
        </mxCell>
        <mxCell id="FQJ8MNaaskxs6qzRmeDJ-59" value="DESCRIPTION" style="shape=partialRectangle;connectable=0;fillColor=none;top=0;left=0;bottom=0;right=0;align=left;spacingLeft=6;overflow=hidden;strokeColor=#457B9D;fontColor=#1D3557;rounded=0;" parent="FQJ8MNaaskxs6qzRmeDJ-57" vertex="1">
          <mxGeometry x="30" width="147.050048828125" height="30" as="geometry">
            <mxRectangle width="147.050048828125" height="30" as="alternateBounds" />
          </mxGeometry>
        </mxCell>
        <mxCell id="FQJ8MNaaskxs6qzRmeDJ-60" value="" style="shape=partialRectangle;collapsible=0;dropTarget=0;pointerEvents=0;fillColor=none;top=0;left=0;bottom=0;right=0;points=[[0,0.5],[1,0.5]];portConstraint=eastwest;strokeColor=#457B9D;fontColor=#1D3557;rounded=0;" parent="FQJ8MNaaskxs6qzRmeDJ-50" vertex="1">
          <mxGeometry y="120" width="177.050048828125" height="30" as="geometry" />
        </mxCell>
        <mxCell id="FQJ8MNaaskxs6qzRmeDJ-61" value="FK2" style="shape=partialRectangle;connectable=0;fillColor=none;top=0;left=0;bottom=0;right=0;editable=1;overflow=hidden;strokeColor=#457B9D;fontColor=#1D3557;rounded=0;" parent="FQJ8MNaaskxs6qzRmeDJ-60" vertex="1">
          <mxGeometry width="30" height="30" as="geometry">
            <mxRectangle width="30" height="30" as="alternateBounds" />
          </mxGeometry>
        </mxCell>
        <mxCell id="FQJ8MNaaskxs6qzRmeDJ-62" value="RESOLVER_ID" style="shape=partialRectangle;connectable=0;fillColor=none;top=0;left=0;bottom=0;right=0;align=left;spacingLeft=6;overflow=hidden;strokeColor=#457B9D;fontColor=#1D3557;rounded=0;" parent="FQJ8MNaaskxs6qzRmeDJ-60" vertex="1">
          <mxGeometry x="30" width="147.050048828125" height="30" as="geometry">
            <mxRectangle width="147.050048828125" height="30" as="alternateBounds" />
          </mxGeometry>
        </mxCell>
        <mxCell id="FQJ8MNaaskxs6qzRmeDJ-69" value="" style="shape=partialRectangle;collapsible=0;dropTarget=0;pointerEvents=0;fillColor=none;top=0;left=0;bottom=0;right=0;points=[[0,0.5],[1,0.5]];portConstraint=eastwest;strokeColor=#457B9D;fontColor=#1D3557;rounded=0;" parent="FQJ8MNaaskxs6qzRmeDJ-50" vertex="1">
          <mxGeometry y="150" width="177.050048828125" height="30" as="geometry" />
        </mxCell>
        <mxCell id="FQJ8MNaaskxs6qzRmeDJ-70" value="" style="shape=partialRectangle;connectable=0;fillColor=none;top=0;left=0;bottom=0;right=0;editable=1;overflow=hidden;strokeColor=#457B9D;fontColor=#1D3557;rounded=0;" parent="FQJ8MNaaskxs6qzRmeDJ-69" vertex="1">
          <mxGeometry width="30" height="30" as="geometry">
            <mxRectangle width="30" height="30" as="alternateBounds" />
          </mxGeometry>
        </mxCell>
        <mxCell id="FQJ8MNaaskxs6qzRmeDJ-71" value="DIFICULTY" style="shape=partialRectangle;connectable=0;fillColor=none;top=0;left=0;bottom=0;right=0;align=left;spacingLeft=6;overflow=hidden;strokeColor=#457B9D;fontColor=#1D3557;rounded=0;" parent="FQJ8MNaaskxs6qzRmeDJ-69" vertex="1">
          <mxGeometry x="30" width="147.050048828125" height="30" as="geometry">
            <mxRectangle width="147.050048828125" height="30" as="alternateBounds" />
          </mxGeometry>
        </mxCell>
        <mxCell id="FQJ8MNaaskxs6qzRmeDJ-72" value="" style="shape=partialRectangle;collapsible=0;dropTarget=0;pointerEvents=0;fillColor=none;top=0;left=0;bottom=0;right=0;points=[[0,0.5],[1,0.5]];portConstraint=eastwest;strokeColor=#457B9D;fontColor=#1D3557;rounded=0;" parent="FQJ8MNaaskxs6qzRmeDJ-50" vertex="1">
          <mxGeometry y="180" width="177.050048828125" height="29" as="geometry" />
        </mxCell>
        <mxCell id="FQJ8MNaaskxs6qzRmeDJ-73" value="" style="shape=partialRectangle;connectable=0;fillColor=none;top=0;left=0;bottom=0;right=0;editable=1;overflow=hidden;strokeColor=#457B9D;fontColor=#1D3557;rounded=0;" parent="FQJ8MNaaskxs6qzRmeDJ-72" vertex="1">
          <mxGeometry width="30" height="29" as="geometry">
            <mxRectangle width="30" height="29" as="alternateBounds" />
          </mxGeometry>
        </mxCell>
        <mxCell id="FQJ8MNaaskxs6qzRmeDJ-74" value="STATUS" style="shape=partialRectangle;connectable=0;fillColor=none;top=0;left=0;bottom=0;right=0;align=left;spacingLeft=6;overflow=hidden;strokeColor=#457B9D;fontColor=#1D3557;rounded=0;" parent="FQJ8MNaaskxs6qzRmeDJ-72" vertex="1">
          <mxGeometry x="30" width="147.050048828125" height="29" as="geometry">
            <mxRectangle width="147.050048828125" height="29" as="alternateBounds" />
          </mxGeometry>
        </mxCell>
        <mxCell id="FQJ8MNaaskxs6qzRmeDJ-95" value="" style="edgeStyle=orthogonalEdgeStyle;fontSize=12;html=1;endArrow=ERoneToMany;startArrow=ERmandOne;entryX=0;entryY=0.5;entryDx=0;entryDy=0;exitX=0;exitY=0.5;exitDx=0;exitDy=0;endFill=0;strokeWidth=2;strokeColor=#457B9D;labelBackgroundColor=#F1FAEE;fontColor=#1D3557;rounded=0;" parent="1" source="FQJ8MNaaskxs6qzRmeDJ-2" target="FQJ8MNaaskxs6qzRmeDJ-38" edge="1">
          <mxGeometry width="100" height="100" relative="1" as="geometry">
            <mxPoint x="20" y="125" as="sourcePoint" />
            <mxPoint x="50" y="297" as="targetPoint" />
            <Array as="points">
              <mxPoint x="47" y="89" />
              <mxPoint x="47" y="395" />
            </Array>
          </mxGeometry>
        </mxCell>
        <mxCell id="FQJ8MNaaskxs6qzRmeDJ-97" value="" style="edgeStyle=entityRelationEdgeStyle;fontSize=12;html=1;endArrow=ERoneToMany;startArrow=ERmandOne;entryX=0;entryY=0.5;entryDx=0;entryDy=0;exitX=1;exitY=0.5;exitDx=0;exitDy=0;strokeWidth=2;strokeColor=#457B9D;labelBackgroundColor=#F1FAEE;fontColor=#1D3557;rounded=0;" parent="1" source="FQJ8MNaaskxs6qzRmeDJ-38" target="FQJ8MNaaskxs6qzRmeDJ-54" edge="1">
          <mxGeometry width="100" height="100" relative="1" as="geometry">
            <mxPoint x="304" y="426" as="sourcePoint" />
            <mxPoint x="453" y="319" as="targetPoint" />
          </mxGeometry>
        </mxCell>
        <mxCell id="FQJ8MNaaskxs6qzRmeDJ-98" value="" style="edgeStyle=entityRelationEdgeStyle;fontSize=12;html=1;endArrow=ERmandOne;startArrow=ERmandOne;exitX=1;exitY=0.5;exitDx=0;exitDy=0;entryX=0;entryY=0.5;entryDx=0;entryDy=0;endFill=0;strokeWidth=2;strokeColor=#457B9D;labelBackgroundColor=#F1FAEE;fontColor=#1D3557;rounded=0;" parent="1" source="FQJ8MNaaskxs6qzRmeDJ-2" target="FQJ8MNaaskxs6qzRmeDJ-89" edge="1">
          <mxGeometry width="100" height="100" relative="1" as="geometry">
            <mxPoint x="353" y="419" as="sourcePoint" />
            <mxPoint x="336" y="195" as="targetPoint" />
          </mxGeometry>
        </mxCell>
      </root>
    </mxGraphModel>
  </diagram>
</mxfile>
